<svg width="15" height="24" viewBox="0 0 15 24" fill="none" xmlns="http://www.w3.org/2000/svg">
<path d="M6.97024 19.8915C7.01994 19.9637 7.08643 20.0227 7.16399 20.0635C7.24156 20.1042 7.32787 20.1255 7.41549 20.1255C7.50312 20.1255 7.58943 20.1042 7.66699 20.0635C7.74456 20.0227 7.81105 19.9637 7.86074 19.8915L12.7357 12.8499C12.7922 12.7686 12.8252 12.6735 12.8314 12.5748C12.8376 12.4761 12.8166 12.3776 12.7707 12.29C12.7248 12.2024 12.6557 12.129 12.5711 12.0779C12.4864 12.0268 12.3894 11.9998 12.2905 12H2.54051C2.44184 12.0004 2.34515 12.0277 2.26083 12.0789C2.17652 12.1302 2.10777 12.2035 2.06198 12.2909C2.01619 12.3783 1.9951 12.4765 2.00096 12.575C2.00682 12.6735 2.03942 12.7685 2.09526 12.8499L6.97024 19.8915Z" fill="#3F4156"/>
<path d="M7.94577 2.40013C7.89608 2.32796 7.82959 2.26895 7.75202 2.22818C7.67446 2.18742 7.58815 2.16612 7.50052 2.16612C7.4129 2.16612 7.32659 2.18742 7.24902 2.22818C7.17146 2.26895 7.10497 2.32796 7.05527 2.40013L2.18029 9.44178C2.12386 9.523 2.09077 9.61813 2.08461 9.71683C2.07845 9.81554 2.09946 9.91404 2.14536 10.0016C2.19125 10.0893 2.26028 10.1626 2.34493 10.2137C2.42959 10.2649 2.52664 10.2918 2.62554 10.2917L12.3755 10.2917C12.4742 10.2912 12.5709 10.2639 12.6552 10.2127C12.7395 10.1614 12.8082 10.0882 12.854 10.0008C12.8998 9.91338 12.9209 9.81515 12.9151 9.71666C12.9092 9.61816 12.8766 9.52313 12.8208 9.44178L7.94577 2.40013Z" fill="#3F4156"/>
</svg>
