<svg width="18" height="23" viewBox="0 0 18 23" fill="none" xmlns="http://www.w3.org/2000/svg">
<path d="M2.21833 7.33331H15.7808L14.97 20.3125C14.9329 20.9049 14.6714 21.4609 14.2388 21.8673C13.8062 22.2737 13.2349 22.5 12.6413 22.5H5.359C4.76542 22.5 4.19417 22.2737 3.76154 21.8673C3.32891 21.4609 3.06743 20.9049 3.03033 20.3125L2.21833 7.33331ZM17.1668 3.83331V6.16665H0.833496V3.83331H4.3335V2.66665C4.3335 2.04781 4.57933 1.45432 5.01691 1.01673C5.4545 0.579146 6.04799 0.333313 6.66683 0.333313H11.3335C11.9523 0.333313 12.5458 0.579146 12.9834 1.01673C13.421 1.45432 13.6668 2.04781 13.6668 2.66665V3.83331H17.1668ZM6.66683 3.83331H11.3335V2.66665H6.66683V3.83331Z" fill="#6D6F82"/>
</svg>
