<svg width="17" height="15" viewBox="0 0 17 15" fill="none" xmlns="http://www.w3.org/2000/svg">
<path fill-rule="evenodd" clip-rule="evenodd" d="M0.25011 7.50002C0.25011 7.77352 0.358759 8.03583 0.552154 8.22923C0.745552 8.42262 1.00786 8.53127 1.28136 8.53127L13.2294 8.53127L8.80123 12.9574C8.70535 13.0533 8.62929 13.1671 8.5774 13.2924C8.52551 13.4177 8.49881 13.5519 8.49881 13.6875C8.49881 13.8231 8.52551 13.9574 8.5774 14.0827C8.62929 14.2079 8.70535 14.3218 8.80123 14.4176C8.89712 14.5135 9.01094 14.5896 9.13622 14.6415C9.26149 14.6934 9.39576 14.7201 9.53136 14.7201C9.66696 14.7201 9.80123 14.6934 9.9265 14.6415C10.0518 14.5896 10.1656 14.5135 10.2615 14.4176L16.449 8.23015C16.545 8.13435 16.6212 8.02055 16.6732 7.89527C16.7252 7.76998 16.752 7.63567 16.752 7.50002C16.752 7.36438 16.7252 7.23006 16.6732 7.10478C16.6212 6.97949 16.545 6.86569 16.449 6.7699L10.2615 0.582396C10.0678 0.388755 9.80521 0.279968 9.53136 0.279968C9.25751 0.279968 8.99488 0.388755 8.80123 0.582396C8.60759 0.776037 8.49881 1.03867 8.49881 1.31252C8.49881 1.58637 8.60759 1.849 8.80123 2.04265L13.2294 6.46877L1.28136 6.46877C1.00786 6.46877 0.745552 6.57742 0.552154 6.77082C0.358759 6.96421 0.25011 7.22652 0.25011 7.50002Z" fill="#6C77EC"/>
</svg>
