<svg width="23" height="23" viewBox="0 0 23 23" fill="none" xmlns="http://www.w3.org/2000/svg">
<path d="M10.5591 14.3588C10.5591 14.0103 10.58 13.6943 10.6218 13.4109C10.6683 13.1228 10.7659 12.844 10.9146 12.5745C11.0493 12.3143 11.2096 12.1029 11.3955 11.9403C11.5813 11.773 11.7811 11.6127 11.9949 11.4594C12.2086 11.3061 12.42 11.1179 12.6291 10.8949C12.815 10.6858 12.9381 10.4767 12.9985 10.2676C13.0589 10.0538 13.0891 9.82849 13.0891 9.59152C13.0891 9.38243 13.0636 9.19424 13.0124 9.02697C12.966 8.85505 12.887 8.70869 12.7755 8.58788C12.6082 8.37879 12.3991 8.23475 12.1482 8.15576C11.9019 8.07677 11.6441 8.03728 11.3746 8.03728C11.119 8.03728 10.8774 8.07212 10.6497 8.14182C10.4267 8.21152 10.2408 8.32071 10.0921 8.4694C9.94345 8.60414 9.83426 8.76909 9.76457 8.96425C9.69487 9.15475 9.66002 9.36152 9.66002 9.58455H8.36366C8.39154 9.18031 8.48679 8.79697 8.64941 8.43455C8.81669 8.06748 9.04669 7.76546 9.33941 7.52849C9.61356 7.29616 9.92719 7.12657 10.2803 7.0197C10.6335 6.90818 10.9889 6.85243 11.3467 6.85243C11.8206 6.85243 12.269 6.92445 12.6918 7.06849C13.1193 7.21253 13.4748 7.45182 13.7582 7.78637C13.9766 8.02334 14.1392 8.29515 14.2461 8.60182C14.353 8.90849 14.4064 9.23142 14.4064 9.57061C14.4064 9.98414 14.3227 10.3698 14.1555 10.7276C13.9928 11.0854 13.7721 11.4083 13.4934 11.6964C13.34 11.8636 13.1727 12.017 12.9915 12.1564C12.815 12.2958 12.6454 12.4352 12.4827 12.5745C12.3248 12.7139 12.1993 12.8673 12.1064 13.0345C11.9856 13.2529 11.9159 13.4551 11.8973 13.6409C11.8834 13.8221 11.8764 14.0614 11.8764 14.3588H10.5591ZM10.5661 17.0909V15.5645H11.8764V17.0909H10.5661Z" fill="#6C77EC"/>
<circle cx="11.5" cy="11.5" r="10.8235" stroke="#6C77EC" stroke-width="1.35294"/>
</svg>
