<svg width="17" height="16" viewBox="0 0 17 16" fill="none" xmlns="http://www.w3.org/2000/svg">
<path d="M6.9688 2.71255C7.43863 1.26657 7.67354 0.543571 8.0293 0.353776C8.32347 0.196831 8.67653 0.196831 8.9707 0.353776C9.32646 0.543571 9.56137 1.26656 10.0312 2.71255L10.4959 4.14284C10.6272 4.54685 10.6928 4.74886 10.8174 4.89757C10.9229 5.02342 11.0577 5.12137 11.21 5.18277C11.3899 5.25532 11.6023 5.25532 12.0271 5.25532H13.531C15.0514 5.25532 15.8116 5.25532 16.1021 5.53501C16.3422 5.76629 16.4513 6.10207 16.393 6.43034C16.3224 6.82734 15.7074 7.27417 14.4774 8.16784L13.2607 9.0518C12.917 9.3015 12.7452 9.42635 12.6422 9.59081C12.5551 9.72999 12.5036 9.88847 12.4923 10.0523C12.4789 10.2458 12.5445 10.4478 12.6758 10.8518L13.1405 12.2821C13.6104 13.7281 13.8453 14.4511 13.669 14.8138C13.5233 15.1136 13.2377 15.3212 12.9074 15.3671C12.5081 15.4227 11.893 14.9758 10.663 14.0822L9.44633 13.1982C9.10266 12.9485 8.93082 12.8237 8.7426 12.7766C8.58332 12.7368 8.41668 12.7368 8.2574 12.7766C8.06918 12.8237 7.89734 12.9485 7.55367 13.1982L6.33699 14.0822C5.10696 14.9758 4.49195 15.4227 4.09258 15.3671C3.76233 15.3212 3.47671 15.1136 3.33096 14.8138C3.15471 14.4511 3.38963 13.7281 3.85946 12.2821L4.32418 10.8518C4.45546 10.4478 4.52109 10.2458 4.50769 10.0523C4.49636 9.88847 4.44486 9.72999 4.35776 9.59081C4.25483 9.42635 4.08299 9.3015 3.73932 9.0518L2.52264 8.16784C1.29261 7.27417 0.677598 6.82734 0.607026 6.43034C0.548668 6.10207 0.657767 5.76629 0.897937 5.53501C1.18838 5.25532 1.94858 5.25532 3.46898 5.25532H4.97287C5.39768 5.25532 5.61008 5.25532 5.79002 5.18277C5.94229 5.12137 6.0771 5.02342 6.18255 4.89757C6.30716 4.74886 6.3728 4.54685 6.50407 4.14284L6.9688 2.71255Z" fill="#FBDD42"/>
</svg>
