<svg width="20" height="20" viewBox="0 0 20 20" fill="none" xmlns="http://www.w3.org/2000/svg">
<g clip-path="url(#clip0_5_19)">
<path d="M18.7278 9.60556L10.3944 1.27222C10.2904 1.16875 10.1496 1.11067 10.0028 1.11067C9.85601 1.11067 9.71521 1.16875 9.61112 1.27222L1.27778 9.60556C1.18677 9.71184 1.13921 9.84855 1.14461 9.98836C1.15001 10.1282 1.20797 10.2608 1.30691 10.3598C1.40586 10.4587 1.53849 10.5167 1.67831 10.5221C1.81813 10.5275 1.95484 10.4799 2.06112 10.3889L10 2.45L17.9389 10.3944C18.0452 10.4855 18.1819 10.533 18.3217 10.5276C18.4615 10.5222 18.5942 10.4643 18.6931 10.3653C18.792 10.2664 18.85 10.1337 18.8554 9.99392C18.8608 9.8541 18.8132 9.71739 18.7222 9.61111L18.7278 9.60556Z" fill="white"/>
<path d="M15.5556 17.7778H12.7778V12.2222H7.22223V17.7778H4.44445V10L3.33334 11.1111V17.7778C3.33334 18.0725 3.45041 18.3551 3.65878 18.5635C3.86715 18.7718 4.14977 18.8889 4.44445 18.8889H8.33334V13.3333H11.6667V18.8889H15.5556C15.8503 18.8889 16.1329 18.7718 16.3412 18.5635C16.5496 18.3551 16.6667 18.0725 16.6667 17.7778V10.9778L15.5556 9.86667V17.7778Z" fill="white"/>
</g>
<defs>
<clipPath id="clip0_5_19">
<rect width="20" height="20" fill="white"/>
</clipPath>
</defs>
</svg>
