<svg viewBox="0 0 14 18" xmlns="http://www.w3.org/2000/svg">
  <path d="M5.75 8.375C5.75 8.20924 5.81585 8.05027 5.93306 7.93306C6.05027 7.81585 6.20924 7.75 6.375 7.75H10.125C10.2908 7.75 10.4497 7.81585 10.5669 7.93306C10.6842 8.05027 10.75 8.20924 10.75 8.375C10.75 8.54076 10.6842 8.69973 10.5669 8.81694C10.4497 8.93415 10.2908 9 10.125 9H6.375C6.20924 9 6.05027 8.93415 5.93306 8.81694C5.81585 8.69973 5.75 8.54076 5.75 8.375ZM5.75 12.125C5.75 11.9592 5.81585 11.8003 5.93306 11.6831C6.05027 11.5658 6.20924 11.5 6.375 11.5H10.125C10.2908 11.5 10.4497 11.5658 10.5669 11.6831C10.6842 11.8003 10.75 11.9592 10.75 12.125C10.75 12.2908 10.6842 12.4497 10.5669 12.5669C10.4497 12.6842 10.2908 12.75 10.125 12.75H6.375C6.20924 12.75 6.05027 12.6842 5.93306 12.5669C5.81585 12.4497 5.75 12.2908 5.75 12.125ZM3.875 9C4.04076 9 4.19973 8.93415 4.31694 8.81694C4.43415 8.69973 4.5 8.54076 4.5 8.375C4.5 8.20924 4.43415 8.05027 4.31694 7.93306C4.19973 7.81585 4.04076 7.75 3.875 7.75C3.70924 7.75 3.55027 7.81585 3.43306 7.93306C3.31585 8.05027 3.25 8.20924 3.25 8.375C3.25 8.54076 3.31585 8.69973 3.43306 8.81694C3.55027 8.93415 3.70924 9 3.875 9ZM3.875 12.75C4.04076 12.75 4.19973 12.6842 4.31694 12.5669C4.43415 12.4497 4.5 12.2908 4.5 12.125C4.5 11.9592 4.43415 11.8003 4.31694 11.6831C4.19973 11.5658 4.04076 11.5 3.875 11.5C3.70924 11.5 3.55027 11.5658 3.43306 11.6831C3.31585 11.8003 3.25 11.9592 3.25 12.125C3.25 12.2908 3.31585 12.4497 3.43306 12.5669C3.55027 12.6842 3.70924 12.75 3.875 12.75ZM3.35625 1.5C3.48555 1.13428 3.7251 0.817661 4.04189 0.593785C4.35867 0.36991 4.73709 0.249797 5.125 0.25H8.875C9.26291 0.249797 9.64133 0.36991 9.95811 0.593785C10.2749 0.817661 10.5144 1.13428 10.6438 1.5H11.375C11.8723 1.5 12.3492 1.69754 12.7008 2.04918C13.0525 2.40081 13.25 2.87772 13.25 3.375V15.875C13.25 16.3723 13.0525 16.8492 12.7008 17.2008C12.3492 17.5525 11.8723 17.75 11.375 17.75H2.625C2.12772 17.75 1.65081 17.5525 1.29917 17.2008C0.947544 16.8492 0.75 16.3723 0.75 15.875V3.375C0.75 2.87772 0.947544 2.40081 1.29917 2.04918C1.65081 1.69754 2.12772 1.5 2.625 1.5H3.35625ZM5.125 1.5C4.95924 1.5 4.80027 1.56585 4.68306 1.68306C4.56585 1.80027 4.5 1.95924 4.5 2.125C4.5 2.29076 4.56585 2.44973 4.68306 2.56694C4.80027 2.68415 4.95924 2.75 5.125 2.75H8.875C9.04076 2.75 9.19973 2.68415 9.31694 2.56694C9.43415 2.44973 9.5 2.29076 9.5 2.125C9.5 1.95924 9.43415 1.80027 9.31694 1.68306C9.19973 1.56585 9.04076 1.5 8.875 1.5H5.125ZM3.35625 2.75H2.625C2.45924 2.75 2.30027 2.81585 2.18306 2.93306C2.06585 3.05027 2 3.20924 2 3.375V15.875C2 16.0408 2.06585 16.1997 2.18306 16.3169C2.30027 16.4342 2.45924 16.5 2.625 16.5H11.375C11.5408 16.5 11.6997 16.4342 11.8169 16.3169C11.9342 16.1997 12 16.0408 12 15.875V3.375C12 3.20924 11.9342 3.05027 11.8169 2.93306C11.6997 2.81585 11.5408 2.75 11.375 2.75H10.6438C10.5144 3.11572 10.2749 3.43234 9.95811 3.65622C9.64133 3.88009 9.26291 4.0002 8.875 4H5.125C4.73709 4.0002 4.35867 3.88009 4.04189 3.65622C3.7251 3.43234 3.48555 3.11572 3.35625 2.75Z"/>
</svg>
